<svg xmlns="http://www.w3.org/2000/svg" width="24" height="24" viewBox="0 0 24 24" fill="none" stroke="#cdd6f4" stroke-width="1.8" stroke-linecap="round" stroke-linejoin="round">
  <circle cx="12" cy="12" r="3"/>
  <path d="M19.4 15a1.6 1.6 0 0 0 .3 1.8l.1.1a2 2 0 1 1-2.8 2.8l-.1-.1a1.6 1.6 0 0 0-1.8-.3 1.6 1.6 0 0 0-1 1.4V21a2 2 0 1 1-4 0v-.2a1.6 1.6 0 0 0-1-1.4 1.6 1.6 0 0 0-1.8.3l-.1.1a2 2 0 0 1-2.8-2.8l.1-.1a1.6 1.6 0 0 0 .3-1.8 1.6 1.6 0 0 0-1.4-1H3a2 2 0 1 1 0-4h.2a1.6 1.6 0 0 0 1.4-1 1.6 1.6 0 0 0-.3-1.8l-.1-.1a2 2 0 1 1 2.8-2.8l.1.1a1.6 1.6 0 0 0 1.8.3H9a1.6 1.6 0 0 0 1-1.4V3a2 2 0 1 1 4 0v.2a1.6 1.6 0 0 0 1 1.4h.1a1.6 1.6 0 0 0 1.8-.3l.1-.1a2 2 0 1 1 2.8 2.8l-.1.1a1.6 1.6 0 0 0-.3 1.8V9c0 .6.4 1.2 1 1.4h.2a2 2 0 1 1 0 4h-.2a1.6 1.6 0 0 0-1.4 1z"/>
</svg>
